PathFileType	4	(X/Y/Z)	Patient4_TMGait_0pt8_01_right_46.trc.trc
DataRate	CameraRate	NumFrames	NumMarkers	Units	OrigDataRate	OrigDataStartFrame	OrigNumFrames
92.105263157895	92.105263157895	5	33	mm	92.105263157895	1	       141
Frame#	Time	Sacral			L.Shoulder			Chest			R.Shoulder			Neck			R.ASIS			L.ASIS			R.Thigh.Superior			R.Thigh.Lateral			R.Thigh.Inferior			R.Patella			L.Thigh.Superior			L.Thigh.Lateral			L.Thigh.Inferior			L.Patella			L.Shank.Superior			L.Shank.Lateral			L.Shank.Inferior			R.Shank.Superior			R.Shank.Lateral			R.Shank.Inferior			R.Heel			R.Midfoot.Superior			R.Midfoot.Lateral			R.Toe			L.Heel			L.Midfoot.Lateral			L.Midfoot.Superior			L.Toe			L.Elbow			L.Wrist			R.Elbow			R.Wrist			
		X1	Y1	Z1	X2	Y2	Z2	X3	Y3	Z3	X4	Y4	Z4	X5	Y5	Z5	X6	Y6	Z6	X7	Y7	Z7	X8	Y8	Z8	X9	Y9	Z9	X10	Y10	Z10	X11	Y11	Z11	X12	Y12	Z12	X13	Y13	Z13	X14	Y14	Z14	X15	Y15	Z15	X16	Y16	Z16	X17	Y17	Z17	X18	Y18	Z18	X19	Y19	Z19	X20	Y20	Z20	X21	Y21	Z21	X22	Y22	Z22	X23	Y23	Z23	X24	Y24	Z24	X25	Y25	Z25	X26	Y26	Z26	X27	Y27	Z27	X28	Y28	Z28	X29	Y29	Z29	X30	Y30	Z30	X31	Y31	Z31	X32	Y32	Z32	X33	Y33	Z33	

1	51.820000000000	872.555532025108	1010.388002575526	451.511240766263	1052.634056655148	1447.255658860022	297.140423551297	1149.565629667042	1372.495696156604	459.192919195026	1055.702448520579	1434.005087168935	633.312211109396	1028.300034123909	1499.772546495705	456.446188261576	1095.233943921984	947.756459180607	576.109483320498	1092.803807334588	969.324968884488	302.158677213205	1181.020694712816	782.125243551945	547.440946399401	1145.613757773313	660.895935892817	621.694023239413	1236.367927914461	622.038846965482	542.256285039342	1256.641603415607	507.065353396331	567.466926477154	1134.250128743510	750.733588241274	334.472008139279	1039.021665416107	637.174349509740	275.517413691364	1116.040060354671	556.298555167709	343.935269122239	1112.388348228191	487.707518593878	357.057929412647	1085.276856354382	416.139872978632	349.176789413991	995.031464082024	303.189550122746	297.786252041377	1037.773446068342	192.625741618882	374.368444272636	1174.528081562713	436.210671295212	577.274502043580	1047.496955916932	408.273080612353	632.215506221164	1029.629124300788	296.850275378994	590.410403175837	833.151993031388	261.306367153479	550.955834571700	981.208360288387	167.928236155311	605.842644010537	870.627182220084	188.916520535296	627.150809394269	1016.819728677351	42.875942242416	632.200276444018	903.698786807084	38.877728372292	413.943501244248	979.347389934828	36.508736024816	334.890498884408	1062.685461291464	96.672223761928	364.552760231726	1191.341345232078	42.634651734529	337.999282209724	1088.368224578225	1111.165461637960	142.540436849903	1294.089034803553	948.188771157367	150.059642053876	1013.286244147660	1076.629784070914	721.050283350539	1147.765491809501	851.298320653283	714.554726926088	
2	51.830857142857	871.384144967055	1010.684544183456	451.018528502562	1053.584943625467	1447.550596351078	296.740423384123	1149.418986793836	1372.379286127016	459.228340559795	1054.922885630785	1434.008439185451	632.892362937717	1028.306337966072	1499.921414400073	455.952037590098	1094.022924140948	948.238911339722	576.096860733463	1091.874798189308	969.231272866885	302.194891021157	1181.656093651629	785.557114549746	546.938494778054	1149.068013049106	663.834607975735	621.460925297983	1239.915351869060	626.546672740064	541.627145129194	1262.879253714806	512.548498816059	566.994752132353	1130.518547272199	749.512573569623	334.732899720196	1034.036317479000	637.189344877436	275.298511159746	1109.636003262042	555.308588008796	343.698748231077	1105.048293777295	487.025523356982	356.729047178445	1077.776163124960	415.822386879837	348.831669461567	987.005587759270	303.294063875079	297.527709784853	1029.195226866212	192.545224422596	374.138078633659	1183.439426980274	439.197794332113	576.705944469804	1057.825882113307	406.064530982797	631.515942114140	1044.627890729142	294.248697373059	589.482687518273	849.906702061084	249.512136338108	549.906995094577	1002.182837440240	164.690592586184	605.267965785860	890.992805916672	179.941655335659	626.466954605810	1043.998299300523	41.989358229750	632.007851777669	894.629863316714	39.061934437006	413.909270980100	970.260766140434	36.527730096156	334.924569340529	1053.640384678826	96.627750480511	364.458219075878	1182.270552809381	42.438819019872	337.924617144484	1095.723965447298	1113.661359111665	140.915865250397	1309.241511094465	963.672353621380	150.532950808204	1006.606615093907	1077.494524937923	720.133272438131	1119.767929307790	844.017741351803	714.929565582788	
3	51.841714285714	870.243464997643	1010.961816209736	450.549834435627	1054.521531251796	1447.823923442927	296.377060280421	1149.291708422696	1372.243395332903	459.280308540500	1054.185570243757	1433.985506697316	632.503662610317	1028.326674848963	1500.048137321975	455.488237700734	1092.839119215178	948.678735238948	576.094557621323	1090.963226073821	969.128851543657	302.233902237288	1182.255167157496	788.875346389717	546.461328131039	1152.385292017578	666.666394171924	621.245264363033	1243.334295935530	630.913792727510	541.038066972706	1268.896792742651	517.891244575820	566.562463125707	1126.844869779142	748.302234387481	334.980802320123	1029.103019183876	637.202772053243	275.075689949374	1103.305231043610	554.331190769488	343.454047879161	1097.798491343223	486.357288269951	356.395554100772	1070.369269031310	415.508856076762	348.486061643833	979.078719969854	303.394395088372	297.272512640339	1020.729970812380	192.465127435863	373.909584712135	1192.142445342389	442.085530856839	576.180055286439	1067.994555203316	403.756054990821	630.882727378367	1059.459089290232	291.573198552745	588.622089542490	866.535322912764	237.708812969036	548.971253783039	1022.966675433621	161.386500422080	604.760209243371	911.205639818841	170.943628033428	625.880851485045	1070.921494873650	41.052013926595	631.869647643943	885.684266566817	39.236679553214	413.877317280184	961.296052897749	36.544668565997	334.958344541989	1044.718866406840	96.586179560372	364.364682835045	1173.322004999982	42.250055858773	337.849842012009	1102.944554387033	1116.123882463153	139.350721726886	1323.998793877780	979.003488059978	151.056246987631	999.867640821654	1078.375136743108	719.226147286763	1092.278591666536	837.255384640843	715.316009434127	
4	51.852571428571	869.165777413040	1011.193639269833	450.135203694676	1055.443649671509	1448.044876972209	296.095901852979	1149.208934071459	1372.054918725765	459.377003338213	1053.536098499976	1433.904469768382	632.184944199569	1028.381421662207	1500.119614146568	455.095680072902	1091.709426274641	949.022152597381	576.119230024379	1090.081306918817	968.997618516308	302.284444075887	1182.750900750015	791.926035062488	546.040321767604	1155.384838266695	669.245794746460	621.072211066012	1246.445806168168	634.950320516841	540.538123545785	1274.438704799550	522.942737745090	566.203703888262	1123.244323677378	747.093693641528	335.198112918917	1024.213528541650	637.210869200499	274.846799316679	1097.050138929923	553.366314327099	343.187109540801	1090.649919604089	485.704935973663	356.043779151569	1063.061088473177	415.197155376971	348.133648105566	971.246953776524	303.491882711653	297.021425702207	1012.378815800452	192.385988378963	373.680962451926	1200.454360483480	444.769180941577	575.734691818494	1077.969355596755	401.186787659972	630.405182337033	1074.147188789099	288.730283612037	587.899370413508	883.242301779473	225.735765189452	548.289333431285	1043.671228146820	157.970292967705	604.389227398090	931.471972030093	161.834650485652	625.511320177885	1097.702260342411	40.147007782917	631.836745103023	876.862695060743	39.400994317088	413.847396555885	952.453204268125	36.560734371954	334.990509527049	1035.923596652920	96.549591507515	364.270355547595	1164.494502012607	42.071103418471	337.774893430123	1109.953278139551	1118.539274118842	137.897870858357	1338.040872318301	994.168480502230	151.704496534071	992.904841728322	1079.361732102038	718.355936001493	1065.581398929860	831.537297798441	715.739584596466	
5	51.863428571429	868.178920572056	1011.358594088109	449.800972824165	1056.353735676825	1448.186343602834	295.934594262143	1149.191866831870	1371.784998794533	459.543006816382	1053.011499337294	1433.740586109463	631.969037483405	1028.488623993568	1500.107247414442	454.809692325715	1090.657056235608	949.224228784813	576.185784503028	1089.238889152236	968.819595363935	302.353098312390	1183.079735583744	794.571356521017	545.700143127015	1157.908290873727	671.440762094025	620.957633978556	1249.089477496851	638.484246015383	540.167713270417	1279.285633783943	527.572026864447	565.940947299599	1119.723997126254	745.877126196878	335.368225886587	1019.352364188886	637.209627487087	274.612356509946	1090.863895886025	552.412054315316	342.885467543121	1083.601210402061	485.067033959683	355.661676316295	1055.841790332028	414.883837499972	347.768942812648	963.490630305295	303.588959332470	296.774896217685	1004.124472019926	192.308205891617	373.450073323273	1208.225528740835	447.159776691742	575.395327149745	1087.747247114289	398.220507599776	630.161847279520	1088.743442727752	285.650872694312	587.373388713445	900.259919338600	213.448893231586	547.983522775366	1064.436822164506	154.422735659885	604.208143901780	952.026508867332	152.550989473210	625.459574878857	1124.492942512157	39.388974578308	631.949824298978	868.144418496420	39.556730287146	413.818537957519	943.711569994141	36.577274242719	335.020037116579	1027.235653043822	96.518948289833	364.173072654771	1155.765798388381	41.902979426694	337.699951720831	1116.696068404930	1120.897790632868	136.597247098097	1351.117849984603	1009.164399959721	152.540020834859	985.567646400145	1080.551142223842	717.553954954752	1039.879916397143	827.262091024704	716.222419122792	
